<svg width="512" height="512" viewBox="0 0 512 512" fill="none" xmlns="http://www.w3.org/2000/svg">
<g clip-path="url(#clip0)">
<path d="M386.689 304.403C351.102 304.403 322.151 333.354 322.151 368.941C322.151 404.528 351.102 433.479 386.689 433.479C422.282 433.479 451.227 404.528 451.227 368.941C451.227 333.354 422.276 304.403 386.689 304.403ZM386.689 401.21C368.893 401.21 354.42 386.737 354.42 368.941C354.42 351.145 368.893 336.672 386.689 336.672C404.485 336.672 418.958 351.145 418.958 368.941C418.958 386.738 404.485 401.21 386.689 401.21Z" fill="#0099FF"/>
<path d="M166.185 304.403C130.598 304.403 101.647 333.354 101.647 368.941C101.647 404.528 130.598 433.479 166.185 433.479C201.772 433.479 230.723 404.528 230.723 368.941C230.723 333.354 201.772 304.403 166.185 304.403ZM166.185 401.21C148.389 401.21 133.916 386.737 133.916 368.941C133.916 351.145 148.389 336.672 166.185 336.672C183.976 336.672 198.454 351.145 198.454 368.941C198.454 386.738 183.981 401.21 166.185 401.21Z" fill="#0099FF"/>
<path d="M430.15 119.675C427.407 114.227 421.83 110.79 415.731 110.79H330.756V143.059H405.781L449.715 230.443L478.553 215.943L430.15 119.675Z" fill="#0099FF"/>
<path d="M338.286 353.345H216.202V385.614H338.286V353.345Z" fill="#0099FF"/>
<path d="M117.781 353.345H61.8488C52.9368 353.345 45.7148 360.568 45.7148 369.479C45.7148 378.391 52.9378 385.613 61.8488 385.613H117.782C126.694 385.613 133.916 378.39 133.916 369.479C133.916 360.567 126.693 353.345 117.781 353.345Z" fill="#0099FF"/>
<path d="M508.612 254.709L476.876 213.835C473.827 209.898 469.121 207.596 464.135 207.596H346.891V94.655C346.891 85.743 339.668 78.521 330.757 78.521H61.8488C52.9368 78.521 45.7148 85.744 45.7148 94.655C45.7148 103.566 52.9378 110.789 61.8488 110.789H314.622V223.73C314.622 232.642 321.845 239.864 330.756 239.864H456.234L479.731 270.132V353.343H435.092C426.18 353.343 418.958 360.566 418.958 369.477C418.958 378.389 426.181 385.611 435.092 385.611H495.865C504.777 385.611 511.999 378.388 512 369.477V264.605C512 261.023 510.806 257.538 508.612 254.709Z" fill="#0099FF"/>
<path d="M116.706 271.597H42.487C33.575 271.597 26.353 278.82 26.353 287.731C26.353 296.643 33.576 303.865 42.487 303.865H116.705C125.617 303.865 132.839 296.642 132.839 287.731C132.84 278.82 125.617 271.597 116.706 271.597Z" fill="#0099FF"/>
<path d="M153.815 208.134H16.134C7.223 208.134 0 215.357 0 224.269C0 233.181 7.223 240.403 16.134 240.403H153.815C162.727 240.403 169.949 233.18 169.949 224.269C169.949 215.358 162.727 208.134 153.815 208.134Z" fill="#0099FF"/>
<path d="M180.168 144.672H42.487C33.575 144.672 26.353 151.895 26.353 160.806C26.353 169.718 33.576 176.94 42.487 176.94H180.168C189.08 176.94 196.302 169.717 196.302 160.806C196.303 151.895 189.08 144.672 180.168 144.672Z" fill="#0099FF"/>
</g>
<defs>
<clipPath id="clip0">
<rect width="512" height="512" fill="white"/>
</clipPath>
</defs>
</svg>
