<svg width="512" height="512" viewBox="0 0 512 512" fill="none" xmlns="http://www.w3.org/2000/svg">
<path d="M406 256C406 173.29 338.71 106 256 106C173.29 106 106 173.29 106 256C106 338.71 173.29 406 256 406C338.71 406 406 338.71 406 256ZM227.28 345.368C218.343 325.261 212.839 299.264 211.395 271H300.603C299.159 299.263 293.656 325.26 284.718 345.368C276.321 364.263 265.316 376 256 376C246.683 376 235.678 364.263 227.28 345.368ZM256 136C265.316 136 276.321 147.737 284.719 166.633C293.657 186.74 299.159 212.738 300.604 241H211.396C212.84 212.737 218.344 186.74 227.281 166.633C235.678 147.737 246.683 136 256 136V136ZM309.346 363.468C310.3 361.555 311.231 359.585 312.134 357.552C322.69 333.799 329.123 303.5 330.643 271H375.065C369.981 311.581 344.553 345.921 309.346 363.468V363.468ZM375.065 241H330.643C329.123 208.501 322.691 178.201 312.134 154.448C311.231 152.415 310.3 150.445 309.346 148.532C344.553 166.079 369.981 200.419 375.065 241ZM202.653 148.532C201.699 150.445 200.769 152.415 199.865 154.448C189.309 178.201 182.875 208.501 181.356 241H136.935C142.019 200.419 167.447 166.08 202.653 148.532V148.532ZM136.936 271H181.357C182.877 303.5 189.31 333.799 199.866 357.552C200.77 359.585 201.7 361.555 202.654 363.468C167.447 345.92 142.019 311.581 136.936 271Z" fill="#0099FF"/>
<path d="M50 100C58.333 100 66.19 97.939 73.106 94.319L107.572 128.785C110.501 131.714 114.339 133.178 118.178 133.178C122.017 133.178 125.856 131.713 128.784 128.785C162.824 94.746 208.003 76 256 76C264.284 76 271 69.284 271 61C271 52.716 264.284 46 256 46C205.009 46 156.747 64.127 118.548 97.335L94.319 73.106C97.94 66.189 100 58.333 100 50C100 22.43 77.57 0 50 0C22.43 0 0 22.43 0 50C0 77.57 22.43 100 50 100ZM50 30C61.028 30 70 38.972 70 50C70 61.028 61.028 70 50 70C38.972 70 30 61.028 30 50C30 38.972 38.972 30 50 30Z" fill="#0099FF"/>
<path d="M462 412C453.667 412 445.81 414.06 438.894 417.681L404.428 383.215C398.571 377.358 389.073 377.358 383.215 383.215C349.176 417.254 303.996 436 256 436C247.716 436 241 442.716 241 451C241 459.284 247.716 466 256 466C306.991 466 355.253 447.873 393.452 414.665L417.681 438.894C414.06 445.81 412 453.667 412 462C412 489.57 434.43 512 462 512C489.57 512 512 489.57 512 462C512 434.43 489.57 412 462 412ZM462 482C450.972 482 442 473.028 442 462C442 450.972 450.972 442 462 442C473.028 442 482 450.972 482 462C482 473.028 473.028 482 462 482Z" fill="#0099FF"/>
<path d="M76 256C76 247.716 69.284 241 61 241C52.716 241 46 247.716 46 256C46 306.991 64.127 355.253 97.335 393.452L73.106 417.681C66.19 414.06 58.333 412 50 412C22.43 412 0 434.43 0 462C0 489.57 22.43 512 50 512C77.57 512 100 489.57 100 462C100 453.667 97.94 445.81 94.319 438.894L128.785 404.428C134.643 398.571 134.643 389.073 128.785 383.215C94.746 349.176 76 303.996 76 256V256ZM50 482C38.972 482 30 473.028 30 462C30 450.972 38.972 442 50 442C61.028 442 70 450.972 70 462C70 473.028 61.028 482 50 482Z" fill="#0099FF"/>
<path d="M436 256C436 264.284 442.716 271 451 271C459.284 271 466 264.284 466 256C466 205.009 447.873 156.747 414.665 118.548L438.894 94.319C445.81 97.939 453.667 100 462 100C489.57 100 512 77.57 512 50C512 22.43 489.57 0 462 0C434.43 0 412 22.43 412 50C412 58.333 414.06 66.189 417.681 73.106L383.215 107.572C377.357 113.429 377.357 122.927 383.215 128.785C417.254 162.824 436 208.004 436 256ZM462 30C473.028 30 482 38.972 482 50C482 61.028 473.028 70 462 70C450.972 70 442 61.028 442 50C442 38.972 450.972 30 462 30Z" fill="#0099FF"/>
</svg>
