<svg width="512" height="512" viewBox="0 0 512 512" fill="none" xmlns="http://www.w3.org/2000/svg">
<path d="M392 402.271V256C392 181.01 330.991 120 256 120C181.009 120 120 181.01 120 256V402.271C100.88 408.416 87 426.364 87 447.5V512H425V447.5C425 426.364 411.12 408.416 392 402.271V402.271ZM150 367H362V400H150V367ZM256 150C314.449 150 362 197.552 362 256V337H150V256C150 197.552 197.551 150 256 150ZM395 482H117V447.5C117 437.851 124.851 430 134.5 430H377.5C387.149 430 395 437.851 395 447.5V482Z" fill="#0099FF"/>
<path d="M241 0H271V72.033H241V0Z" fill="#0099FF"/>
<path d="M314.121 77.646L340.917 10.7994L368.757 21.9594L341.961 88.806L314.121 77.646Z" fill="#0099FF"/>
<path d="M377.026 112.514L425.576 59.2815L447.746 79.5015L399.196 132.734L377.026 112.514Z" fill="#0099FF"/>
<path d="M143.269 21.7781L171.109 10.6181L197.905 77.4647L170.065 88.6247L143.269 21.7781Z" fill="#0099FF"/>
<path d="M64.3818 79.4893L86.5518 59.2693L135.102 112.502L112.932 132.722L64.3818 79.4893Z" fill="#0099FF"/>
<path d="M241 183H271V264.333H241V183Z" fill="#0099FF"/>
<path d="M241 285H271V315H241V285Z" fill="#0099FF"/>
</svg>
