<svg width="512" height="512" viewBox="0 0 512 512" fill="none" xmlns="http://www.w3.org/2000/svg">
<g clip-path="url(#clip0)">
<path d="M155.213 501.921C155.213 507.475 150.687 512 145.134 512C139.58 512 135.055 507.475 135.055 501.921C135.055 496.368 139.58 491.843 145.134 491.843C150.687 491.843 155.213 496.368 155.213 501.921ZM457.575 10.0787L457.551 425.323C457.55 427.944 456.55 430.522 454.623 432.45L378.024 509.048C376.096 510.976 373.52 511.999 370.898 512H190.488C184.924 512 180.409 507.475 180.409 501.921C180.409 496.368 184.924 491.843 190.488 491.843H360.819V425.323C360.819 419.757 365.332 415.244 370.898 415.244H437.417V20.1575H74.5827V491.843H99.7795C105.333 491.843 109.858 496.368 109.858 501.921C109.858 507.475 105.333 512 99.7795 512H64.5039C58.9384 512 54.4252 507.487 54.4252 501.921V10.0787C54.4252 4.51326 58.9384 0 64.5039 0H447.496C453.062 0 457.575 4.51326 457.575 10.0787ZM423.163 435.402H380.976V477.588L423.163 435.402ZM306.394 169.323H225.764C220.198 169.323 215.685 173.836 215.685 179.402C215.685 184.967 220.198 189.48 225.764 189.48H306.394C311.959 189.48 316.472 184.967 316.472 179.402C316.472 173.836 311.959 169.323 306.394 169.323ZM225.764 229.795H286.236C291.802 229.795 296.315 225.282 296.315 219.717C296.315 214.151 291.802 209.638 286.236 209.638H225.764C220.198 209.638 215.685 214.151 215.685 219.717C215.685 225.282 220.198 229.795 225.764 229.795ZM225.764 310.425H266.079C271.644 310.425 276.157 305.912 276.157 300.346C276.157 294.781 271.644 290.268 266.079 290.268H225.764C220.198 290.268 215.685 294.781 215.685 300.346C215.685 305.912 220.198 310.425 225.764 310.425ZM316.472 340.661C316.472 335.096 311.959 330.583 306.394 330.583H225.764C220.198 330.583 215.685 335.096 215.685 340.661C215.685 346.227 220.198 350.74 225.764 350.74H306.394C311.959 350.74 316.472 346.227 316.472 340.661ZM120.017 176.056C116.786 171.246 114.898 165.462 114.898 159.244C114.898 142.572 128.462 129.008 145.134 129.008C161.806 129.008 175.37 142.572 175.37 159.244C175.37 165.462 173.481 171.246 170.251 176.056C185.342 184.773 195.528 201.072 195.528 219.717C195.528 225.282 191.014 229.795 185.449 229.795H104.819C99.2534 229.795 94.7401 225.282 94.7401 219.717C94.7401 201.072 104.926 184.773 120.017 176.056V176.056ZM135.055 159.244C135.055 164.802 139.576 169.323 145.134 169.323C150.691 169.323 155.213 164.802 155.213 159.244C155.213 153.687 150.691 149.165 145.134 149.165C139.576 149.165 135.055 153.687 135.055 159.244ZM116.625 209.638H173.643C169.483 197.905 158.273 189.48 145.134 189.48C131.994 189.48 120.785 197.905 116.625 209.638ZM94.7401 340.661C94.7401 322.017 104.926 305.717 120.017 297.001C116.786 292.191 114.898 286.407 114.898 280.189C114.898 263.517 128.462 249.953 145.134 249.953C161.806 249.953 175.37 263.517 175.37 280.189C175.37 286.407 173.481 292.191 170.251 297.001C185.342 305.717 195.528 322.017 195.528 340.661C195.528 346.227 191.014 350.74 185.449 350.74H104.819C99.2534 350.74 94.7401 346.227 94.7401 340.661ZM135.055 280.189C135.055 285.746 139.576 290.268 145.134 290.268C150.691 290.268 155.213 285.746 155.213 280.189C155.213 274.632 150.691 270.11 145.134 270.11C139.576 270.11 135.055 274.632 135.055 280.189ZM116.625 330.583H173.643C169.483 318.85 158.273 310.425 145.134 310.425C131.994 310.425 120.785 318.85 116.625 330.583ZM94.7401 461.606C94.7401 442.962 104.926 426.662 120.017 417.946C116.786 413.136 114.898 407.351 114.898 401.134C114.898 384.462 128.462 370.898 145.134 370.898C161.806 370.898 175.37 384.462 175.37 401.134C175.37 407.351 173.481 413.136 170.251 417.946C185.342 426.662 195.528 442.962 195.528 461.606C195.528 467.172 191.014 471.685 185.449 471.685H104.819C99.2534 471.685 94.7401 467.172 94.7401 461.606ZM135.055 401.134C135.055 406.691 139.576 411.213 145.134 411.213C150.691 411.213 155.213 406.691 155.213 401.134C155.213 395.576 150.691 391.055 145.134 391.055C139.576 391.055 135.055 395.576 135.055 401.134ZM116.625 451.528H173.643C169.483 439.795 158.273 431.37 145.134 431.37C131.994 431.37 120.785 439.795 116.625 451.528ZM225.764 451.528C220.198 451.528 215.685 456.041 215.685 461.606C215.685 467.172 220.198 471.685 225.764 471.685H266.079C271.644 471.685 276.157 467.172 276.157 461.606C276.157 456.041 271.644 451.528 266.079 451.528H225.764ZM296.315 421.291C296.315 415.726 291.802 411.213 286.236 411.213H225.764C220.198 411.213 215.685 415.726 215.685 421.291C215.685 426.857 220.198 431.37 225.764 431.37H286.236C291.802 431.37 296.315 426.857 296.315 421.291ZM356.787 50.3937V90.7087C356.787 96.2741 352.274 100.787 346.709 100.787H165.291C159.726 100.787 155.213 96.2741 155.213 90.7087V50.3937C155.213 44.8282 159.726 40.315 165.291 40.315H346.709C352.274 40.315 356.787 44.8282 356.787 50.3937ZM336.63 60.4724H175.37V80.6299H336.63V60.4724ZM400.054 277.752L369.211 308.596L353.835 293.22C349.899 289.285 343.519 289.285 339.581 293.22C335.645 297.156 335.645 303.537 339.581 307.474L362.084 329.977C365.834 333.727 372.257 334.057 376.338 329.977L414.308 292.006C418.244 288.071 418.244 281.689 414.308 277.752C410.371 273.817 403.991 273.817 400.054 277.752V277.752ZM414.308 156.807C410.371 152.872 403.991 152.872 400.053 156.807L369.21 187.651L353.834 172.275C349.898 168.34 343.518 168.34 339.58 172.275C335.644 176.211 335.644 182.593 339.58 186.529L362.083 209.032C365.833 212.782 372.256 213.112 376.337 209.032L414.307 171.061C418.245 167.125 418.245 160.743 414.308 156.807V156.807Z" fill="#0099FF"/>
</g>
<defs>
<clipPath id="clip0">
<rect width="512" height="512" fill="white"/>
</clipPath>
</defs>
</svg>
