<svg width="512" height="512" viewBox="0 0 512 512" fill="none" xmlns="http://www.w3.org/2000/svg">
<path d="M486.4 256H382.908C378.505 228.958 360.977 223.906 360.226 223.71L298.487 206.822V177.143C305.674 170.869 310.969 162.716 313.779 153.6H324.087C338.226 153.6 349.687 142.138 349.687 128V76.8C349.687 36.608 304.939 0 255.821 0C206.703 0 161.954 36.608 161.954 76.8V170.667C161.954 180.092 169.595 187.733 179.021 187.733H187.554C192.267 187.733 196.087 183.913 196.087 179.2C196.087 174.487 192.267 170.667 187.554 170.667H179.021V153.6H197.794C200.648 162.718 205.963 170.871 213.154 177.161V206.814L151.398 223.693C150.545 223.906 133.205 228.966 128.896 256H25.6C11.4615 256 0 267.462 0 281.6V290.133C0.0448119 300.943 6.87487 310.56 17.0667 314.163V494.933C17.0667 504.359 24.7077 512 34.1333 512H68.2667C77.6923 512 85.3333 504.359 85.3333 494.933V486.4H426.667V494.933C426.667 504.359 434.308 512 443.733 512H477.867C487.292 512 494.933 504.359 494.933 494.933V314.163C505.125 310.56 511.955 300.943 512 290.133V281.6C512 267.462 500.539 256 486.4 256ZM230.221 197.726C239.104 206.507 247.356 204.8 263.757 204.8C270.375 205.016 276.781 202.451 281.421 197.726V211.797C274.662 225.408 237.047 225.254 230.221 211.797V197.726ZM332.621 128C332.621 132.713 328.8 136.533 324.087 136.533H315.554V102.4H332.621V128ZM255.821 17.0667C299.068 17.0667 332.621 49.1776 332.621 76.8V85.3333H314.88C310.675 55.95 285.508 34.1276 255.825 34.1276C226.142 34.1276 200.975 55.95 196.77 85.3333H179.021V76.8C179.021 49.1776 212.565 17.0667 255.821 17.0667ZM196.087 136.533H179.021V102.4H196.087V136.533ZM213.154 93.8667C213.154 70.3025 232.257 51.2 255.821 51.2C279.385 51.2 298.487 70.3025 298.487 93.8667V144.521C297.182 152.116 293.293 159.028 287.479 164.087C272.998 176.794 272.307 187.733 263.757 187.733H247.876C239.343 187.733 238.626 176.785 224.111 164.045C218.44 159.121 214.583 152.44 213.154 145.067V93.8667ZM155.853 240.171L217.463 223.334C222.498 230.161 233.344 238.933 255.863 238.933C278.383 238.933 289.143 230.195 294.178 223.343L355.473 240.102C355.814 240.222 362.675 242.79 365.577 256H146.176C148.992 242.782 155.725 240.222 155.853 240.171V240.171ZM85.3333 469.333C75.9077 469.333 68.2667 476.974 68.2667 486.4V494.933H34.1333V315.733H202.24C177.141 333.25 162.184 361.926 162.184 392.533C162.184 423.141 177.141 451.817 202.24 469.333H85.3333ZM256 315.733C298.415 315.733 332.8 350.118 332.8 392.533C332.8 434.949 298.415 469.333 256 469.333C213.585 469.333 179.2 434.949 179.2 392.533C179.252 350.139 213.606 315.785 256 315.733ZM477.867 494.933H443.733V486.4C443.733 476.974 436.092 469.333 426.667 469.333H309.803C334.902 451.817 349.858 423.141 349.858 392.533C349.858 361.926 334.902 333.25 309.803 315.733H477.867V494.933ZM494.933 290.133C494.933 294.846 491.113 298.667 486.4 298.667H25.6C20.8872 298.667 17.0667 294.846 17.0667 290.133V281.6C17.0667 276.887 20.8872 273.067 25.6 273.067H486.4C491.113 273.067 494.933 276.887 494.933 281.6V290.133Z" fill="#0099FF"/>
<path d="M230.4 375.467C235.113 375.467 238.933 371.646 238.933 366.933C238.933 357.508 246.574 349.867 256 349.867C265.426 349.867 273.067 357.508 273.067 366.933C273.067 376.359 265.426 384 256 384C251.287 384 247.467 387.82 247.467 392.533V409.6C247.467 414.313 251.287 418.133 256 418.133C260.713 418.133 264.533 414.313 264.533 409.6V399.991C281.707 395.557 292.623 378.708 289.651 361.222C286.678 343.736 270.809 331.44 253.134 332.929C235.46 334.418 221.871 349.196 221.867 366.933C221.867 371.646 225.687 375.467 230.4 375.467V375.467Z" fill="#0099FF"/>
<path d="M256 452.267C260.713 452.267 264.533 448.446 264.533 443.733C264.533 439.02 260.713 435.2 256 435.2C251.287 435.2 247.467 439.02 247.467 443.733C247.467 448.446 251.287 452.267 256 452.267Z" fill="#0099FF"/>
</svg>
