<svg width="512" height="512" viewBox="0 0 512 512" fill="none" xmlns="http://www.w3.org/2000/svg">
<path d="M172.143 137.714H202.143V167.714H172.143V137.714Z" fill="#0099FF"/>
<path d="M172.143 206.571H202.143V236.571H172.143V206.571Z" fill="#0099FF"/>
<path d="M309.857 206.571H339.857V236.571H309.857V206.571Z" fill="#0099FF"/>
<path d="M378.714 206.571H408.714V236.571H378.714V206.571Z" fill="#0099FF"/>
<path d="M309.857 275.429H339.857V305.429H309.857V275.429Z" fill="#0099FF"/>
<path d="M378.714 275.429H408.714V305.429H378.714V275.429Z" fill="#0099FF"/>
<path d="M309.857 344.286H339.857V374.286H309.857V344.286Z" fill="#0099FF"/>
<path d="M378.714 344.286H408.714V374.286H378.714V344.286Z" fill="#0099FF"/>
<path d="M309.857 413.143H339.857V443.143H309.857V413.143Z" fill="#0099FF"/>
<path d="M378.714 413.143H408.714V443.143H378.714V413.143Z" fill="#0099FF"/>
<path d="M103.286 206.571H133.286V236.571H103.286V206.571Z" fill="#0099FF"/>
<path d="M172.143 275.429H202.143V305.429H172.143V275.429Z" fill="#0099FF"/>
<path d="M103.286 275.429H133.286V305.429H103.286V275.429Z" fill="#0099FF"/>
<path d="M172.143 344.286H202.143V374.286H172.143V344.286Z" fill="#0099FF"/>
<path d="M103.286 344.286H133.286V374.286H103.286V344.286Z" fill="#0099FF"/>
<path d="M477.571 482V137.714H271V66.15L236.571 71.888V0H68.857V99.841L34.429 105.579V482H0V512H512V482H477.571ZM447.571 167.714V482H271V167.714H447.571ZM98.857 30H206.571V76.888L98.857 94.841V30ZM64.429 130.993L241 101.564V137.714V482H202.143V413.143H103.286V482H64.429V130.993ZM172.143 482H133.286V443.143H172.143V482Z" fill="#0099FF"/>
</svg>
