<svg width="512" height="512" viewBox="0 0 512 512" fill="none" xmlns="http://www.w3.org/2000/svg">
<path d="M497 9H15C6.716 9 0 15.716 0 24V488C0 496.284 6.716 503 15 503H497C505.284 503 512 496.284 512 488V24C512 15.716 505.284 9 497 9ZM482 39V409H30V39H482ZM30 473V439H482V473H30Z" fill="#0099FF"/>
<path d="M88 207H216C224.284 207 231 200.284 231 192V112C231 103.716 224.284 97 216 97H167V88C167 79.716 160.284 73 152 73C143.716 73 137 79.716 137 88V97H88C79.716 97 73 103.716 73 112V192C73 200.284 79.716 207 88 207ZM103 127H137V128C137 136.284 143.716 143 152 143C160.284 143 167 136.284 167 128V127H201V177H103V127Z" fill="#0099FF"/>
<path d="M284.643 194.808L410.699 217.035C411.58 217.191 412.456 217.265 413.321 217.265C420.463 217.265 426.792 212.144 428.075 204.868L441.967 126.083C442.658 122.165 441.764 118.133 439.482 114.875C437.2 111.616 433.717 109.397 429.799 108.707L381.543 100.198L383.106 91.3339C384.544 83.1759 379.097 75.3959 370.939 73.9579C362.783 72.5149 355.001 77.9659 353.563 86.1249L352 94.9879L303.744 86.4789C299.827 85.7869 295.794 86.6819 292.536 88.9639C289.277 91.2459 287.058 94.7289 286.368 98.6469L272.476 177.432C271.038 185.589 276.485 193.369 284.643 194.808ZM313.307 118.628L346.791 124.532L346.617 125.517C345.179 133.675 350.626 141.455 358.784 142.893C359.665 143.049 360.541 143.123 361.406 143.123C368.548 143.123 374.877 138.002 376.16 130.725L376.334 129.74L409.818 135.644L401.135 184.884L304.624 167.866L313.307 118.628Z" fill="#0099FF"/>
<path d="M424 265H375V256C375 247.716 368.284 241 360 241C351.716 241 345 247.716 345 256V265H296C287.716 265 281 271.716 281 280V360C281 368.284 287.716 375 296 375H424C432.284 375 439 368.284 439 360V280C439 271.716 432.284 265 424 265ZM409 345H311V295H345V296C345 304.284 351.716 311 360 311C368.284 311 375 304.284 375 296V295H409V345Z" fill="#0099FF"/>
<path d="M82.536 363.989C83.819 371.266 90.148 376.386 97.29 376.386C98.155 376.386 99.031 376.311 99.912 376.156L225.968 353.929C234.126 352.491 239.573 344.711 238.135 336.553L224.243 257.768C223.553 253.85 221.333 250.367 218.075 248.085C214.817 245.803 210.784 244.909 206.867 245.6L158.611 254.109L157.048 245.246C155.61 237.087 147.829 231.639 139.672 233.079C131.513 234.517 126.066 242.297 127.505 250.455L129.068 259.319L80.812 267.828C76.894 268.518 73.411 270.738 71.129 273.996C68.847 277.255 67.953 281.287 68.644 285.204L82.536 363.989ZM134.276 288.863L134.45 289.848C135.733 297.126 142.062 302.246 149.204 302.246C150.069 302.246 150.945 302.171 151.826 302.016C159.985 300.578 165.432 292.798 163.993 284.64L163.819 283.655L197.303 277.751L205.985 326.991L109.474 344.009L100.791 294.769L134.276 288.863Z" fill="#0099FF"/>
</svg>
