<svg width="525" height="525" viewBox="0 0 525 525" fill="none" xmlns="http://www.w3.org/2000/svg">
<path d="M37.1925 465.338H23.8155C18.0494 465.338 13.377 470.014 13.377 475.776C13.377 481.542 18.05 486.215 23.8155 486.215H500.126C505.892 486.215 510.565 481.542 510.565 475.776C510.565 470.014 505.892 465.338 500.126 465.338H454.995V224.244H500.126H500.128C504.393 224.24 508.223 221.646 509.808 217.687L509.809 217.686C511.391 213.731 510.413 209.206 507.33 206.259L507.329 206.257L332.681 39.5484L332.681 39.5478C328.7 35.7508 322.454 35.695 318.402 39.4244L318.4 39.4267L217.99 132.107C205.142 117.201 186.511 108.438 166.751 108.105L166.73 108.105H166.709C125.599 108.105 92.7735 146.977 92.7621 193.935C92.2414 221.015 103.914 246.866 124.516 264.382V287.016L70.5153 305.014C50.6013 311.634 37.1762 330.267 37.1925 351.249V465.338ZM280.348 315.415V303.629H315.04V465.338H296.225V351.247V351.242C296.199 337.586 290.425 324.584 280.348 315.415ZM240.655 193.97C240.722 178.495 237.027 163.246 229.897 149.534L325.354 61.4193L474.041 203.367H240.165C240.478 200.245 240.641 197.108 240.655 193.971V193.97ZM58.0696 351.247V351.246C58.0639 339.252 65.7382 328.602 77.1194 324.817L77.1213 324.817L138.242 304.441C142.513 303.023 145.393 299.034 145.393 294.533V276.115C159.172 281.05 174.245 281.05 188.024 276.115V294.533C188.024 299.026 190.898 303.017 195.163 304.44L195.163 304.44L256.287 324.817L256.289 324.818C267.677 328.602 275.353 339.253 275.348 351.246V351.247V465.338H58.0696V351.247ZM434.118 465.338H399.425V293.191C399.425 287.429 394.753 282.752 388.987 282.752H269.909C264.143 282.752 259.471 287.429 259.471 293.191V303.872L208.901 287.016V264.4C221.555 253.878 230.91 239.937 235.843 224.244H434.118V465.338ZM335.917 303.629H378.548V465.338H335.917V303.629ZM113.639 193.959C113.639 157.658 137.881 128.982 166.709 128.982C195.537 128.982 219.778 157.658 219.778 193.959C219.778 230.263 195.537 258.936 166.709 258.936C137.881 258.936 113.639 230.263 113.639 193.959Z" fill="#0099FF" stroke="#0099FF" stroke-width="5"/>
</svg>
