<svg width="512" height="512" viewBox="0 0 512 512" fill="none" xmlns="http://www.w3.org/2000/svg">
<g clip-path="url(#clip0)">
<path d="M495.984 252.588C478.865 238.479 451.807 237.269 434.048 256.328L389.961 303.655C384.261 285.336 367.152 271.997 346.984 271.997H268.309C262.339 271.997 260.34 269.717 249.97 261.728C210.432 227.26 151.046 227.37 111.628 262.058L82.71 287.516C69.711 280.636 54.532 280.466 41.462 286.996L8.29401 303.575C0.884007 307.285 -2.11499 316.294 1.58401 323.704L91.579 503.693C95.289 511.103 104.298 514.102 111.708 510.403L144.876 493.814C161.225 485.645 170.324 468.965 169.734 451.987H346.983C379.851 451.987 411.259 436.288 430.978 409.99L502.984 313.976C516.953 295.366 514.743 268.077 495.984 252.588ZM131.456 466.985L111.707 476.864L35.122 323.704L54.881 313.825C62.291 310.125 71.29 313.115 75 320.535L138.166 446.867C141.866 454.276 138.866 463.275 131.456 466.985ZM478.985 295.976L406.98 391.99C392.891 410.779 370.462 421.988 346.984 421.988H159.265L103.058 309.565L131.446 284.577C159.694 259.728 202.292 259.728 230.54 284.577C247.179 299.226 257.528 301.996 268.308 301.996H346.983C355.253 301.996 361.982 308.726 361.982 316.995C361.982 325.264 355.252 331.994 346.983 331.994H270.378C262.098 331.994 255.379 338.714 255.379 346.993C255.379 355.272 262.099 361.992 270.378 361.992H357.033C369.482 361.992 381.482 356.772 389.961 347.663L455.997 276.777C462.037 270.297 471.296 270.837 476.976 275.807C482.915 281.006 483.556 289.896 478.985 295.976Z" fill="#0099FF"/>
<path d="M315.385 102.367C325.654 91.5979 331.984 77.0389 331.984 61.0089C331.984 27.9909 305.306 0.0129395 271.988 0.0129395C238.92 0.0129395 210.992 27.9409 210.992 61.0089C210.992 76.5479 217.082 91.2169 228.141 102.487C200.713 117.866 180.994 147.384 180.994 182.002V197.001C180.994 205.28 187.714 212 195.993 212H346.984C355.263 212 361.983 205.28 361.983 197.001V182.002C361.982 148.064 343.315 118.086 315.385 102.367ZM271.988 30.0119C288.247 30.0119 301.986 44.2109 301.986 61.0099C301.986 77.5489 288.527 91.0079 271.988 91.0079C255.189 91.0079 240.99 77.2689 240.99 61.0099C240.99 44.5009 255.479 30.0119 271.988 30.0119ZM210.992 182.002C210.992 148.934 238.92 121.006 271.988 121.006C305.066 121.006 331.984 148.364 331.984 182.002H210.992Z" fill="#0099FF"/>
</g>
<defs>
<clipPath id="clip0">
<rect width="512" height="512" fill="white"/>
</clipPath>
</defs>
</svg>
