<svg width="512" height="512" viewBox="0 0 512 512" fill="none" xmlns="http://www.w3.org/2000/svg">
<g clip-path="url(#clip0)">
<path d="M413.051 245.188C413.051 158.59 342.598 88.136 255.999 88.136C169.4 88.136 98.9482 158.59 98.9482 245.188C98.9482 298.294 126.062 347.93 170.27 376.795V426.273C170.27 473.543 208.727 511.999 255.997 511.999C303.267 511.999 341.724 473.542 341.724 426.273V398.483C341.724 398.476 341.723 376.797 341.723 376.797C385.936 347.931 413.051 298.296 413.051 245.188ZM311.45 426.274C311.45 456.85 286.575 481.724 255.999 481.724C225.423 481.724 200.548 456.849 200.548 426.274V413.62H311.45V426.274ZM319.047 355.201C314.347 357.901 311.45 362.907 311.45 368.328V383.345H271.136V305.066C290.792 298.671 305.044 280.184 305.044 258.422C305.044 250.062 298.266 243.284 289.906 243.284C281.546 243.284 274.768 250.062 274.768 258.422C274.768 268.771 266.348 277.192 255.999 277.192C245.65 277.192 237.229 268.772 237.229 258.422C237.229 250.062 230.451 243.284 222.091 243.284C213.731 243.284 206.953 250.062 206.953 258.422C206.953 280.183 221.204 298.671 240.861 305.066V383.345H200.55V368.327C200.55 362.907 197.653 357.901 192.953 355.201C153.644 332.618 129.226 290.464 129.226 245.188C129.226 175.284 186.097 118.412 256.002 118.412C325.907 118.412 382.778 175.283 382.778 245.188C382.776 290.465 358.356 332.62 319.047 355.201Z" fill="#0099FF"/>
<path d="M255.999 0C247.639 0 240.861 6.778 240.861 15.138V41.713C240.861 50.073 247.639 56.851 255.999 56.851C264.359 56.851 271.137 50.073 271.137 41.713V15.138C271.137 6.778 264.36 0 255.999 0Z" fill="#0099FF"/>
<path d="M213.417 45.5959L204.021 20.7359C201.065 12.9159 192.326 8.97294 184.509 11.9279C176.689 14.8839 172.745 23.6199 175.701 31.4399L185.096 56.2999C187.386 62.3579 193.144 66.0899 199.259 66.0899C201.037 66.0899 202.847 65.7739 204.609 65.1079C212.429 62.1519 216.373 53.4159 213.417 45.5959Z" fill="#0099FF"/>
<path d="M327.489 11.9279C319.668 8.97089 310.933 12.9169 307.977 20.7369L298.581 45.5969C295.626 53.4159 299.57 62.1519 307.39 65.1079C309.152 65.7739 310.961 66.0899 312.739 66.0899C318.855 66.0899 324.613 62.3579 326.902 56.2999L336.298 31.4399C339.254 23.6189 335.31 14.8839 327.489 11.9279Z" fill="#0099FF"/>
</g>
<defs>
<clipPath id="clip0">
<rect width="511.999" height="511.999" fill="white"/>
</clipPath>
</defs>
</svg>
