<svg width="512" height="512" viewBox="0 0 512 512" fill="none" xmlns="http://www.w3.org/2000/svg">
<g clip-path="url(#clip0)">
<path d="M269.929 203.33L248.195 217.133L272.979 224.107C359.447 248.439 422.828 327.83 422.828 422.042C422.828 433.161 417.918 443.429 407.759 453.048C397.425 462.832 382.032 471.524 362.491 478.719C323.448 493.095 270.609 500.5 217.164 500.5C163.719 500.5 110.88 493.095 71.8374 478.719C52.2959 471.524 36.9027 462.832 26.5693 453.048C16.4105 443.429 11.5 433.161 11.5 422.042C11.5 327.83 74.8942 248.426 161.361 224.108L186.136 217.14L164.417 203.332C136.906 185.843 118.645 155.189 118.645 120.243C118.645 65.8271 162.758 21.7244 217.178 21.7244C271.583 21.7244 315.697 65.8261 315.697 120.243C315.697 155.194 297.462 185.843 269.929 203.33Z" stroke="#0099FF" stroke-width="23"/>
<path d="M407.266 128.115L385.601 141.92L410.328 148.883C461.217 163.213 498.512 209.94 498.512 265.358C498.512 272.721 493.862 280.442 481.325 287.903C470.504 294.344 455.394 299.517 437.592 303.098C414.48 260.395 379.318 224.612 335.872 201.182C351.938 177.699 360.833 149.658 360.846 120.202V120.197C360.846 91.4804 352.27 64.7903 337.717 42.3668C347.831 31.9799 361.909 25.5405 377.514 25.5405C408.223 25.5405 433.15 50.4472 433.15 81.1643C433.15 100.884 422.849 118.186 407.266 128.115Z" stroke="#0099FF" stroke-width="23"/>
</g>
<defs>
<clipPath id="clip0">
<rect width="512" height="512" fill="white"/>
</clipPath>
</defs>
</svg>
