<svg width="512" height="512" viewBox="0 0 512 512" fill="none" xmlns="http://www.w3.org/2000/svg">
<g clip-path="url(#clip0)">
<mask id="path-1-outside-1" maskUnits="userSpaceOnUse" x="-3" y="48.8899" width="518" height="415" fill="black">
<rect fill="white" x="-3" y="48.8899" width="518" height="415"/>
<path d="M496.269 333.383V272.92C496.269 253.131 480.227 237.089 460.438 237.089H440.275L444.408 225.913H473.799C491.032 225.913 504.993 211.643 504.491 194.3C504.14 182.222 494.067 172.688 481.983 172.688H454.03C441.592 172.688 431.509 182.771 431.509 195.209V216.949L429.734 221.752L408.294 157.357C402.68 140.495 386.904 129.12 369.133 129.12H359.543L345.543 58.0249C344.841 54.4599 341.716 51.8899 338.082 51.8899H293.012C288.813 51.8899 285.408 55.2949 285.408 59.4939C285.408 63.6929 288.813 67.0979 293.012 67.0979H331.83L344.044 129.12H167.95L180.163 67.0979H257.523C261.722 67.0979 265.127 63.6929 265.127 59.4939C265.127 55.2949 261.722 51.8899 257.523 51.8899H173.911C170.277 51.8899 167.152 54.4599 166.45 58.0249L152.45 129.12H142.86C125.088 129.12 109.312 140.496 103.699 157.357L82.259 221.752L80.484 216.949V195.209C80.484 182.771 70.401 172.688 57.963 172.688H30.007C17.924 172.688 7.85 182.221 7.5 194.3C6.996 211.644 20.959 225.913 38.192 225.913H67.583L71.716 237.089H51.552C31.763 237.089 15.722 253.13 15.722 272.919V333.385C6.741 335.379 0 343.393 0 352.965V378.217C0 389.3 8.984 398.283 20.066 398.283H28.901V437.358C28.901 449.923 39.086 460.108 51.651 460.108H110.065C122.63 460.108 132.815 449.923 132.815 437.358V398.283H146.004C149.352 410.54 160.577 419.577 173.88 419.577H338.108C351.411 419.577 362.636 410.538 365.984 398.283H379.176V437.358C379.176 449.923 389.361 460.108 401.926 460.108H460.341C472.906 460.108 483.091 449.923 483.091 437.358V398.282H491.932C503.015 398.282 511.998 389.298 511.998 378.216V352.965C512 343.39 505.254 335.373 496.269 333.383ZM446.716 195.21C446.716 191.178 449.997 187.897 454.029 187.897H481.982C486.014 187.897 489.295 191.178 489.295 195.21C489.295 203.755 482.343 210.707 473.798 210.707H446.716V195.21V195.21ZM65.274 210.707H38.192C29.647 210.707 22.695 203.755 22.695 195.21C22.695 191.178 25.975 187.897 30.007 187.897H57.961C61.993 187.897 65.274 191.178 65.274 195.21V210.707ZM118.127 162.161C121.679 151.494 131.617 144.328 142.859 144.328H158.703H353.288H369.131C380.373 144.328 390.313 151.494 393.864 162.161L418.811 237.091H93.18L118.127 162.161ZM117.608 437.358C117.608 441.517 114.225 444.9 110.066 444.9H51.651C47.492 444.9 44.109 441.517 44.109 437.358V398.283H117.608V437.358ZM338.11 404.37H173.881C169.143 404.37 164.96 401.951 162.501 398.284H349.488C347.031 401.951 342.847 404.37 338.11 404.37ZM467.885 437.358C467.885 441.517 464.502 444.9 460.343 444.9H401.928C397.769 444.9 394.386 441.517 394.386 437.358V398.283H467.885V437.358ZM496.793 378.216C496.792 380.9 494.617 383.074 491.934 383.074H359.404H152.586H20.066C17.382 383.074 15.208 380.899 15.208 378.216V352.965C15.208 350.282 17.383 348.107 20.066 348.107H102.403C106.602 348.107 110.007 344.702 110.007 340.503C110.007 336.304 106.602 332.899 102.403 332.899H30.93V272.921C30.93 261.531 40.163 252.298 51.553 252.298H82.634H429.357H460.438C471.828 252.298 481.061 261.531 481.061 272.921V332.899H137.889C133.69 332.899 130.285 336.304 130.285 340.503C130.285 344.702 133.69 348.107 137.889 348.107H491.934C494.617 348.107 496.792 350.282 496.792 352.965V378.216H496.793Z"/>
</mask>
<path d="M496.269 333.383V272.92C496.269 253.131 480.227 237.089 460.438 237.089H440.275L444.408 225.913H473.799C491.032 225.913 504.993 211.643 504.491 194.3C504.14 182.222 494.067 172.688 481.983 172.688H454.03C441.592 172.688 431.509 182.771 431.509 195.209V216.949L429.734 221.752L408.294 157.357C402.68 140.495 386.904 129.12 369.133 129.12H359.543L345.543 58.0249C344.841 54.4599 341.716 51.8899 338.082 51.8899H293.012C288.813 51.8899 285.408 55.2949 285.408 59.4939C285.408 63.6929 288.813 67.0979 293.012 67.0979H331.83L344.044 129.12H167.95L180.163 67.0979H257.523C261.722 67.0979 265.127 63.6929 265.127 59.4939C265.127 55.2949 261.722 51.8899 257.523 51.8899H173.911C170.277 51.8899 167.152 54.4599 166.45 58.0249L152.45 129.12H142.86C125.088 129.12 109.312 140.496 103.699 157.357L82.259 221.752L80.484 216.949V195.209C80.484 182.771 70.401 172.688 57.963 172.688H30.007C17.924 172.688 7.85 182.221 7.5 194.3C6.996 211.644 20.959 225.913 38.192 225.913H67.583L71.716 237.089H51.552C31.763 237.089 15.722 253.13 15.722 272.919V333.385C6.741 335.379 0 343.393 0 352.965V378.217C0 389.3 8.984 398.283 20.066 398.283H28.901V437.358C28.901 449.923 39.086 460.108 51.651 460.108H110.065C122.63 460.108 132.815 449.923 132.815 437.358V398.283H146.004C149.352 410.54 160.577 419.577 173.88 419.577H338.108C351.411 419.577 362.636 410.538 365.984 398.283H379.176V437.358C379.176 449.923 389.361 460.108 401.926 460.108H460.341C472.906 460.108 483.091 449.923 483.091 437.358V398.282H491.932C503.015 398.282 511.998 389.298 511.998 378.216V352.965C512 343.39 505.254 335.373 496.269 333.383ZM446.716 195.21C446.716 191.178 449.997 187.897 454.029 187.897H481.982C486.014 187.897 489.295 191.178 489.295 195.21C489.295 203.755 482.343 210.707 473.798 210.707H446.716V195.21V195.21ZM65.274 210.707H38.192C29.647 210.707 22.695 203.755 22.695 195.21C22.695 191.178 25.975 187.897 30.007 187.897H57.961C61.993 187.897 65.274 191.178 65.274 195.21V210.707ZM118.127 162.161C121.679 151.494 131.617 144.328 142.859 144.328H158.703H353.288H369.131C380.373 144.328 390.313 151.494 393.864 162.161L418.811 237.091H93.18L118.127 162.161ZM117.608 437.358C117.608 441.517 114.225 444.9 110.066 444.9H51.651C47.492 444.9 44.109 441.517 44.109 437.358V398.283H117.608V437.358ZM338.11 404.37H173.881C169.143 404.37 164.96 401.951 162.501 398.284H349.488C347.031 401.951 342.847 404.37 338.11 404.37ZM467.885 437.358C467.885 441.517 464.502 444.9 460.343 444.9H401.928C397.769 444.9 394.386 441.517 394.386 437.358V398.283H467.885V437.358ZM496.793 378.216C496.792 380.9 494.617 383.074 491.934 383.074H359.404H152.586H20.066C17.382 383.074 15.208 380.899 15.208 378.216V352.965C15.208 350.282 17.383 348.107 20.066 348.107H102.403C106.602 348.107 110.007 344.702 110.007 340.503C110.007 336.304 106.602 332.899 102.403 332.899H30.93V272.921C30.93 261.531 40.163 252.298 51.553 252.298H82.634H429.357H460.438C471.828 252.298 481.061 261.531 481.061 272.921V332.899H137.889C133.69 332.899 130.285 336.304 130.285 340.503C130.285 344.702 133.69 348.107 137.889 348.107H491.934C494.617 348.107 496.792 350.282 496.792 352.965V378.216H496.793Z" fill="#0099FF"/>
<path d="M496.269 333.383V272.92C496.269 253.131 480.227 237.089 460.438 237.089H440.275L444.408 225.913H473.799C491.032 225.913 504.993 211.643 504.491 194.3C504.14 182.222 494.067 172.688 481.983 172.688H454.03C441.592 172.688 431.509 182.771 431.509 195.209V216.949L429.734 221.752L408.294 157.357C402.68 140.495 386.904 129.12 369.133 129.12H359.543L345.543 58.0249C344.841 54.4599 341.716 51.8899 338.082 51.8899H293.012C288.813 51.8899 285.408 55.2949 285.408 59.4939C285.408 63.6929 288.813 67.0979 293.012 67.0979H331.83L344.044 129.12H167.95L180.163 67.0979H257.523C261.722 67.0979 265.127 63.6929 265.127 59.4939C265.127 55.2949 261.722 51.8899 257.523 51.8899H173.911C170.277 51.8899 167.152 54.4599 166.45 58.0249L152.45 129.12H142.86C125.088 129.12 109.312 140.496 103.699 157.357L82.259 221.752L80.484 216.949V195.209C80.484 182.771 70.401 172.688 57.963 172.688H30.007C17.924 172.688 7.85 182.221 7.5 194.3C6.996 211.644 20.959 225.913 38.192 225.913H67.583L71.716 237.089H51.552C31.763 237.089 15.722 253.13 15.722 272.919V333.385C6.741 335.379 0 343.393 0 352.965V378.217C0 389.3 8.984 398.283 20.066 398.283H28.901V437.358C28.901 449.923 39.086 460.108 51.651 460.108H110.065C122.63 460.108 132.815 449.923 132.815 437.358V398.283H146.004C149.352 410.54 160.577 419.577 173.88 419.577H338.108C351.411 419.577 362.636 410.538 365.984 398.283H379.176V437.358C379.176 449.923 389.361 460.108 401.926 460.108H460.341C472.906 460.108 483.091 449.923 483.091 437.358V398.282H491.932C503.015 398.282 511.998 389.298 511.998 378.216V352.965C512 343.39 505.254 335.373 496.269 333.383ZM446.716 195.21C446.716 191.178 449.997 187.897 454.029 187.897H481.982C486.014 187.897 489.295 191.178 489.295 195.21C489.295 203.755 482.343 210.707 473.798 210.707H446.716V195.21V195.21ZM65.274 210.707H38.192C29.647 210.707 22.695 203.755 22.695 195.21C22.695 191.178 25.975 187.897 30.007 187.897H57.961C61.993 187.897 65.274 191.178 65.274 195.21V210.707ZM118.127 162.161C121.679 151.494 131.617 144.328 142.859 144.328H158.703H353.288H369.131C380.373 144.328 390.313 151.494 393.864 162.161L418.811 237.091H93.18L118.127 162.161ZM117.608 437.358C117.608 441.517 114.225 444.9 110.066 444.9H51.651C47.492 444.9 44.109 441.517 44.109 437.358V398.283H117.608V437.358ZM338.11 404.37H173.881C169.143 404.37 164.96 401.951 162.501 398.284H349.488C347.031 401.951 342.847 404.37 338.11 404.37ZM467.885 437.358C467.885 441.517 464.502 444.9 460.343 444.9H401.928C397.769 444.9 394.386 441.517 394.386 437.358V398.283H467.885V437.358ZM496.793 378.216C496.792 380.9 494.617 383.074 491.934 383.074H359.404H152.586H20.066C17.382 383.074 15.208 380.899 15.208 378.216V352.965C15.208 350.282 17.383 348.107 20.066 348.107H102.403C106.602 348.107 110.007 344.702 110.007 340.503C110.007 336.304 106.602 332.899 102.403 332.899H30.93V272.921C30.93 261.531 40.163 252.298 51.553 252.298H82.634H429.357H460.438C471.828 252.298 481.061 261.531 481.061 272.921V332.899H137.889C133.69 332.899 130.285 336.304 130.285 340.503C130.285 344.702 133.69 348.107 137.889 348.107H491.934C494.617 348.107 496.792 350.282 496.792 352.965V378.216H496.793Z" stroke="#0099FF" stroke-width="6" mask="url(#path-1-outside-1)"/>
<path d="M371.57 263.93H140.421C136.222 263.93 132.817 267.335 132.817 271.534V315.635C132.817 319.834 136.221 323.239 140.421 323.239H371.57C375.769 323.239 379.174 319.834 379.174 315.635V271.534C379.174 267.335 375.769 263.93 371.57 263.93ZM171.342 308.031H148.025V279.138H171.342V308.031ZM209.866 308.031H186.549V279.138H209.866V308.031ZM248.391 308.031H225.074V279.138H248.391V308.031ZM286.916 308.031H263.599V279.138H286.916V308.031ZM325.44 308.031H302.123V279.138H325.44V308.031ZM363.966 308.031H340.648V279.138H363.966V308.031Z" fill="#0099FF"/>
<path d="M462.813 274.603H398.943C394.744 274.603 391.339 278.008 391.339 282.207V315.663C391.339 319.862 394.744 323.267 398.943 323.267H462.813C467.012 323.267 470.417 319.862 470.417 315.663V282.207C470.417 278.007 467.012 274.603 462.813 274.603ZM455.209 308.059H406.547V289.811H455.209V308.059Z" fill="#0099FF"/>
<path d="M113.048 274.603H49.178C44.979 274.603 41.574 278.008 41.574 282.207V315.663C41.574 319.862 44.979 323.267 49.178 323.267H113.048C117.247 323.267 120.652 319.862 120.652 315.663V282.207C120.652 278.007 117.248 274.603 113.048 274.603ZM105.444 308.059H56.781V289.811H105.443V308.059H105.444Z" fill="#0099FF"/>
<path d="M220.497 75.22H191.338C189.111 75.22 188.166 77.649 188.166 79.877C188.166 82.442 189.314 84.67 191.338 84.67H200.652V121.321C200.652 123.481 203.285 124.56 205.917 124.56C208.55 124.56 211.182 123.48 211.182 121.321V84.669H220.496C222.521 84.669 223.668 82.442 223.668 79.876C223.669 77.649 222.724 75.22 220.497 75.22Z" fill="#0099FF"/>
<path d="M262.68 119.497L250.058 78.324C249.315 75.961 246.278 74.814 243.173 74.814C240.068 74.814 237.03 75.961 236.288 78.324L223.733 119.497C223.666 119.767 223.598 120.036 223.598 120.239C223.598 122.737 227.446 124.559 230.347 124.559C232.034 124.559 233.385 124.019 233.789 122.601L236.084 114.164H250.326L252.621 122.601C253.027 124.018 254.376 124.559 256.064 124.559C258.966 124.559 262.813 122.736 262.813 120.239C262.815 120.038 262.748 119.768 262.68 119.497ZM238.246 106.066L243.173 87.977L248.1 106.066H238.246Z" fill="#0099FF"/>
<path d="M305.131 117.878L293.454 99.8569L304.658 81.9039C305.13 81.1619 305.333 80.4869 305.333 79.8109C305.333 76.9759 301.485 74.8169 298.516 74.8169C297.032 74.8169 296.019 75.3559 295.344 76.5719L286.367 92.2309L277.39 76.5719C276.715 75.3559 275.702 74.8169 274.218 74.8169C271.247 74.8169 267.401 76.9769 267.401 79.8109C267.401 80.4859 267.604 81.1609 268.076 81.9039L279.28 99.8569L267.603 117.878C267.198 118.552 266.996 119.16 266.996 119.768C266.996 122.67 271.113 124.965 274.015 124.965C275.095 124.965 276.04 124.627 276.512 123.885L286.367 107.145L296.221 123.885C296.627 124.627 297.638 124.965 298.718 124.965C301.621 124.965 305.738 122.67 305.738 119.768C305.738 119.161 305.535 118.553 305.131 117.878Z" fill="#0099FF"/>
<path d="M318.559 75.22C315.927 75.22 313.295 76.165 313.295 78.392V121.32C313.295 123.48 315.927 124.559 318.559 124.559C321.192 124.559 323.824 123.479 323.824 121.32V78.392C323.824 76.165 321.192 75.22 318.559 75.22Z" fill="#0099FF"/>
</g>
<defs>
<clipPath id="clip0">
<rect width="511.999" height="511.999" fill="white"/>
</clipPath>
</defs>
</svg>
