<svg width="512" height="512" viewBox="0 0 512 512" fill="none" xmlns="http://www.w3.org/2000/svg">
<path d="M356.973 0H86.9729C78.6889 0 71.9729 6.716 71.9729 15V346C71.9729 354.284 78.6889 361 86.9729 361H179.157C154.766 415.592 179.03 459.627 208.361 503.622C208.813 504.062 212.49 512 221.973 512H386.973C393.865 512 399.87 507.304 401.531 500.615L437.773 354.647C444.521 327.653 435.866 299.322 415.184 280.71L371.973 241.82V15C371.973 6.716 365.257 0 356.973 0ZM101.973 30H341.973V331H288.463C284.195 319.441 281.973 307.176 281.973 294.667V255.554C281.973 230.946 262.06 210.999 237.273 211H236.521C211.958 211.001 191.983 230.988 191.983 255.553L191.981 310.605C191.981 317.214 191.213 324.025 189.711 331H101.973V30V30ZM395.116 303.009C407.524 314.176 412.718 331.176 408.664 347.395L375.242 482H230.024C205.184 444.192 188.679 411.446 207.278 371.628C216.239 352.441 221.971 331.618 221.971 310.605L221.973 255.553C221.973 247.529 228.5 241 236.522 241H237.273C245.521 241 251.973 247.57 251.973 255.554V294.667C251.973 321.408 259.814 347.302 274.647 369.551L284.493 384.32C289.088 391.214 298.401 393.075 305.294 388.481C312.187 383.886 314.05 374.573 309.454 367.68L305.001 361H356.973C365.257 361 371.973 354.284 371.973 346V282.18L395.116 303.009Z" fill="#0099FF"/>
<path d="M196.367 160.606C199.296 163.535 203.135 165 206.973 165C210.811 165 214.651 163.536 217.579 160.606L287.266 90.919C293.124 85.061 293.124 75.564 287.266 69.706C281.409 63.848 271.911 63.848 266.053 69.706L206.973 128.786L172.58 94.394C166.723 88.536 157.225 88.536 151.367 94.394C145.509 100.252 145.509 109.749 151.367 115.607L196.367 160.606Z" fill="#0099FF"/>
</svg>
