<svg width="189" height="44" viewBox="0 0 189 44" fill="none" xmlns="http://www.w3.org/2000/svg">
<path d="M55.5674 33.6877V10.0859H68.9232V14.3843H60.0593V19.6831H68.9151V23.9815H60.0593V33.6877H55.5674Z" fill="white"/>
<path d="M73.0859 33.6868L81.4565 10.0959H85.9812L94.3517 33.6868H89.6636L88.2435 29.571H79.1942L77.7714 33.6868H73.0859ZM83.7161 16.4931L80.6852 25.2726H86.7607L83.7161 16.4931Z" fill="white"/>
<path d="M100.103 33.6867L108.487 10.085H113.012L121.369 33.6867H116.683L115.261 29.5709H106.211L104.788 33.6867H100.103ZM110.733 16.493L107.697 25.2725H113.775L110.733 16.493Z" fill="white"/>
<path d="M129.545 33.6867V14.3834H123.276V10.085H140.306V14.3834H134.037V33.6867H129.545Z" fill="white"/>
<path d="M142.215 33.6868L150.585 10.0959H155.11L163.481 33.6868H158.795L157.372 29.571H148.323L146.9 33.6868H142.215ZM152.845 16.4931L149.809 25.2726H155.887L152.845 16.4931Z" fill="white"/>
<path d="M183.196 33.6867L177.022 22.3969L174.569 25.4687V33.6867H170.088V10.085H174.58V19.584L182.212 10.085H187.663L180.222 19.2623L188.301 33.6867H183.196Z" fill="white"/>
<path d="M22.0605 10.3279C19.6391 10.3268 17.2779 11.083 15.3076 12.4906C13.3372 13.8981 11.8563 15.8866 11.0722 18.1776C10.2881 20.4686 10.2401 22.9474 10.9348 25.2671C11.6295 27.5867 13.0322 29.6311 14.9465 31.114V24.7604L22.0605 19.3526L29.0737 24.7113V31.1794C31.0079 29.7096 32.4323 27.67 33.1462 25.3479C33.8601 23.0259 33.8275 20.5384 33.0531 18.2358C32.2786 15.9333 30.8013 13.9317 28.8293 12.513C26.8573 11.0943 24.4899 10.3301 22.0605 10.3279V10.3279ZM21.897 17.7799L13.0876 24.4715L11.7602 22.727L16.3938 19.2163V15.9946H18.5744V17.5537L21.8834 15.0433L32.3091 22.7161L31.009 24.4824L21.897 17.7799Z" fill="white"/>
<path d="M23.6748 26.5754H20.6411V33.7794H23.6748V26.5754Z" fill="white"/>
<path d="M22.0582 38.9065C19.4871 38.9136 16.9492 38.327 14.642 37.1923C12.3348 36.0576 10.3208 34.4056 8.75686 32.3649C8.61295 32.1466 8.55671 31.882 8.59936 31.624C8.64201 31.366 8.78042 31.1336 8.98694 30.9732C9.19346 30.8128 9.45289 30.7362 9.7134 30.7587C9.97392 30.7813 10.2164 30.9013 10.3923 31.0947C11.7549 32.8627 13.5018 34.2976 15.5008 35.2908C17.4999 36.284 19.6986 36.8096 21.9307 36.8277C24.1628 36.8458 26.3697 36.356 28.3846 35.3954C30.3995 34.4347 32.1694 33.0284 33.5606 31.2828C33.7327 31.0659 33.9838 30.9263 34.2588 30.8946C34.5338 30.8629 34.8102 30.9417 35.027 31.1138C35.2439 31.2858 35.3835 31.537 35.4152 31.812C35.4469 32.087 35.3681 32.3633 35.196 32.5802C33.6253 34.5576 31.6276 36.1538 29.3523 37.2494C27.0771 38.345 24.5835 38.9116 22.0582 38.9065Z" fill="white"/>
<path d="M37.0526 28.0368C36.9433 28.0369 36.8347 28.0195 36.7309 27.985C36.6012 27.943 36.481 27.8758 36.3773 27.7872C36.2736 27.6987 36.1885 27.5905 36.1267 27.469C36.0649 27.3474 36.0277 27.2149 36.0173 27.0789C36.0068 26.9429 36.0233 26.8063 36.0659 26.6767C36.717 24.6684 36.9295 22.5438 36.689 20.4463C36.4485 18.3489 35.7605 16.3275 34.6717 14.5188C33.5828 12.71 32.1184 11.1561 30.3774 9.96196C28.6364 8.76781 26.6593 7.96129 24.5798 7.59688C24.3084 7.5499 24.0667 7.397 23.908 7.17183C23.7493 6.94666 23.6865 6.66767 23.7335 6.39622C23.7805 6.12477 23.9334 5.88311 24.1585 5.72439C24.3837 5.56567 24.6627 5.50291 24.9342 5.54989C27.3085 5.96459 29.5661 6.88459 31.554 8.24761C33.542 9.61062 35.2139 11.3848 36.4565 13.4502C37.6992 15.5155 38.4836 17.8237 38.7566 20.2185C39.0297 22.6133 38.7851 25.0388 38.0393 27.3309C37.9695 27.5371 37.8368 27.7162 37.6597 27.8429C37.4827 27.9696 37.2703 28.0374 37.0526 28.0368V28.0368Z" fill="white"/>
<path d="M7.13741 28.2461C6.9206 28.2459 6.70925 28.178 6.53285 28.052C6.35646 27.9259 6.22382 27.7479 6.15344 27.5428C5.36374 25.2313 5.08715 22.7755 5.34292 20.3462C5.59868 17.9169 6.38066 15.5726 7.63444 13.4762C8.88822 11.3798 10.5837 9.58177 12.6029 8.20716C14.6221 6.83256 16.9166 5.9144 19.3267 5.51657C19.5979 5.47341 19.8752 5.53946 20.0978 5.70025C20.3205 5.86104 20.4704 6.10348 20.5147 6.37452C20.559 6.64556 20.4942 6.92312 20.3344 7.14647C20.1746 7.36982 19.9328 7.52077 19.6619 7.56628C17.5507 7.9167 15.5411 8.72247 13.7726 9.92761C12.0041 11.1328 10.5191 12.7084 9.42072 14.5452C8.32236 16.3819 7.63696 18.4357 7.41211 20.5639C7.18727 22.6922 7.42836 24.8439 8.11866 26.8696C8.16918 27.0251 8.18236 27.1904 8.15711 27.352C8.13187 27.5136 8.06892 27.6669 7.97336 27.7996C7.8778 27.9324 7.75232 28.0407 7.60708 28.1159C7.46185 28.1911 7.30095 28.231 7.13741 28.2324V28.2461Z" fill="white"/>
<path d="M18.9644 43.8832C18.9136 43.8874 18.8626 43.8874 18.8118 43.8832C15.5046 43.3907 12.3526 42.1528 9.59404 40.2632C6.83549 38.3736 4.54254 35.8817 2.88847 32.9758C1.23441 30.0699 0.262505 26.826 0.0462099 23.4893C-0.170085 20.1526 0.374888 16.8105 1.63994 13.7153C1.6797 13.5744 1.74883 13.4434 1.84279 13.331C1.93675 13.2187 2.05342 13.1275 2.18513 13.0634C2.31684 12.9993 2.46061 12.9638 2.60701 12.9592C2.7534 12.9547 2.89911 12.9811 3.03456 13.0368C3.17002 13.0926 3.29215 13.1763 3.39294 13.2826C3.49373 13.3889 3.5709 13.5153 3.61938 13.6535C3.66786 13.7917 3.68656 13.9386 3.67425 14.0845C3.66193 14.2305 3.61888 14.3722 3.54793 14.5003C2.57234 16.8966 2.07421 19.4605 2.08151 22.0477C2.08151 31.8793 9.4027 40.3725 19.1143 41.8035C19.374 41.8414 19.6096 41.9762 19.7739 42.1808C19.9382 42.3854 20.019 42.6446 20 42.9063C19.981 43.168 19.8637 43.4128 19.6715 43.5915C19.4794 43.7702 19.2268 43.8695 18.9644 43.8696V43.8832Z" fill="white"/>
<path d="M25.2558 43.854C24.9929 43.8554 24.7393 43.757 24.5461 43.5787C24.3529 43.4004 24.2346 43.1555 24.2148 42.8934C24.1951 42.6313 24.2756 42.3714 24.4399 42.1663C24.6043 41.9611 24.8403 41.8259 25.1004 41.7879C34.7493 40.3106 42.0242 31.8255 42.0242 22.0485C42.0291 19.5193 41.5518 17.0123 40.6177 14.6619C40.5534 14.5331 40.5166 14.3923 40.5096 14.2485C40.5025 14.1047 40.5255 13.9611 40.577 13.8266C40.6284 13.6922 40.7073 13.5699 40.8086 13.4675C40.9098 13.3652 41.0312 13.285 41.1651 13.2321C41.299 13.1792 41.4425 13.1547 41.5863 13.1602C41.7302 13.1657 41.8713 13.201 42.0008 13.2639C42.1303 13.3269 42.2453 13.416 42.3385 13.5258C42.4316 13.6355 42.501 13.7635 42.5421 13.9014C43.7659 16.9814 44.2799 20.2976 44.0457 23.6035C43.8116 26.9094 42.8353 30.12 41.1896 32.9967C39.5438 35.8734 37.2708 38.3421 34.5396 40.2195C31.8084 42.0968 28.6892 43.3345 25.4139 43.8404C25.3616 43.849 25.3087 43.8535 25.2558 43.854V43.854Z" fill="white"/>
<path d="M5.16182 10.5894C4.96983 10.5884 4.78186 10.5344 4.61867 10.4332C4.45548 10.3321 4.32344 10.1878 4.23713 10.0163C4.15082 9.84479 4.1136 9.65277 4.1296 9.46145C4.14559 9.27013 4.21417 9.08696 4.32776 8.93218C6.37686 6.15979 9.04825 3.90724 12.1269 2.35584C15.2056 0.804441 18.6054 -0.00245544 22.0529 0.000103246C25.4986 -0.0104991 28.8977 0.795616 31.9717 2.35237C34.9401 3.85732 37.5339 6.00779 39.5627 8.64598C39.6619 8.75148 39.7379 8.87655 39.7858 9.01315C39.8338 9.14976 39.8526 9.29488 39.8412 9.43921C39.8298 9.58353 39.7883 9.72388 39.7194 9.85122C39.6505 9.97857 39.5558 10.0901 39.4413 10.1787C39.3267 10.2672 39.1949 10.3309 39.0544 10.3655C38.9138 10.4001 38.7675 10.405 38.625 10.3798C38.4824 10.3545 38.3467 10.2998 38.2265 10.219C38.1064 10.1382 38.0045 10.0332 37.9273 9.9107C36.068 7.46548 33.6666 5.48524 30.9119 4.12589C28.1573 2.76654 25.1247 2.0652 22.0529 2.07708C18.9324 2.085 15.8567 2.82059 13.0702 4.22541C10.2838 5.63022 7.86339 7.66554 6.00133 10.1696C5.90418 10.3006 5.77755 10.4068 5.6317 10.4798C5.48585 10.5527 5.32488 10.5903 5.16182 10.5894V10.5894Z" fill="white"/>
</svg>
